v 0.607062 0 -0.794654
v -0.303531 -0.525731 -0.794654
v -0.303531 0.525731 -0.794654
v -0.982247 -5.3071e-08 -0.187593
v -0.303531 0.525731 -0.794654
v -0.303531 -0.525731 -0.794654
v 0.491124 -0.850651 -0.187593
v -0.303531 -0.525731 -0.794654
v 0.607062 8.9407e-08 -0.794654
v 0.491123 0.850651 -0.187593
v 0.607062 0 -0.794654
v -0.303531 0.525731 -0.794654
v -0.491124 0.850651 0.187593
v -0.303531 0.525731 -0.794654
v -0.982247 -1.49012e-07 -0.187593
v -0.491123 -0.850651 0.187592
v -0.982247 -5.96046e-08 -0.187593
v -0.303531 -0.525731 -0.794655
v -0.491123 -0.850651 0.187593
v -0.303531 -0.525731 -0.794654
v 0.491124 -0.850651 -0.187593
v 0.982247 1.78814e-07 0.187592
v 0.491124 -0.850651 -0.187593
v 0.607062 8.9407e-08 -0.794655
v 0.982247 3.27826e-07 0.187593
v 0.607062 8.9407e-08 -0.794654
v 0.491123 0.850651 -0.187593
v -0.491124 0.850651 0.187592
v 0.491123 0.850651 -0.187593
v -0.303531 0.525731 -0.794655
v 0.303531 -0.525731 0.794654
v 0.303531 0.525731 0.794655
v -0.607062 -6.91914e-08 0.794654
v -0.491123 0.850651 0.187593
v -0.607062 -8.9407e-08 0.794654
v 0.303531 0.525731 0.794655
v 0.982247 -1.80313e-07 0.187593
v 0.303531 0.525731 0.794655
v 0.303531 -0.525731 0.794654
v -0.491124 -0.850651 0.187593
v 0.303531 -0.525731 0.794654
v -0.607062 2.98023e-08 0.794654
v -0.982247 2.68221e-07 -0.187593
v -0.607062 -2.98023e-08 0.794654
v -0.491123 0.850651 0.187593
v 0.491124 0.850651 -0.187592
v -0.491123 0.850651 0.187593
v 0.303531 0.525731 0.794655
v 0.491124 0.850651 -0.187592
v 0.303531 0.525731 0.794654
v 0.982247 -2.68221e-07 0.187593
v 0.491123 -0.850651 -0.187592
v 0.982247 -1.78814e-07 0.187593
v 0.303531 -0.525731 0.794654
v 0.491123 -0.850651 -0.187593
v 0.303531 -0.525731 0.794654
v -0.491124 -0.850651 0.187592
v -0.982247 2.68221e-07 -0.187592
v -0.491124 -0.850651 0.187592
v -0.607062 5.96046e-08 0.794654
vt -1 -1
vt -1 -1
vt -1 -1
vt -1 -1
vt -1 -1
vt -1 -1
vt -1 -1
vt -1 -1
vt -1 -1
vt -1 -1
vt -1 -1
vt -1 -1
vt -1 -1
vt -1 -1
vt -1 -1
vt -1 -1
vt -1 -1
vt -1 -1
vt -1 -1
vt -1 -1
vt -1 -1
vt -1 -1
vt -1 -1
vt -1 -1
vt -1 -1
vt -1 -1
vt -1 -1
vt -1 -1
vt -1 -1
vt -1 -1
vt -1 -1
vt -1 -1
vt -1 -1
vt -1 -1
vt -1 -1
vt -1 -1
vt -1 -1
vt -1 -1
vt -1 -1
vt -1 -1
vt -1 -1
vt -1 -1
vt -1 -1
vt -1 -1
vt -1 -1
vt -1 -1
vt -1 -1
vt -1 -1
vt -1 -1
vt -1 -1
vt -1 -1
vt -1 -1
vt -1 -1
vt -1 -1
vt -1 -1
vt -1 -1
vt -1 -1
vt -1 -1
vt -1 -1
vt -1 -1
vn -6.1271e-08 0 -1.40172
vn -6.1271e-08 0 -1.40172
vn -6.1271e-08 0 -1.40172
vn -0.934478 5.35648e-15 -1.04478
vn -0.934478 5.35648e-15 -1.04478
vn -0.934478 5.35648e-15 -1.04478
vn 0.467239 -0.809281 -1.04478
vn 0.467239 -0.809281 -1.04478
vn 0.467239 -0.809281 -1.04478
vn 0.467239 0.809281 -1.04478
vn 0.467239 0.809281 -1.04478
vn 0.467239 0.809281 -1.04478
vn -1.04478 0.809281 -0.467239
vn -1.04478 0.809281 -0.467239
vn -1.04478 0.809281 -0.467239
vn -1.04478 -0.809281 -0.467239
vn -1.04478 -0.809281 -0.467239
vn -1.04478 -0.809281 -0.467239
vn -0.178469 -1.30944 -0.467239
vn -0.178469 -1.30944 -0.467239
vn -0.178469 -1.30944 -0.467239
vn 1.22325 -0.500163 -0.467239
vn 1.22325 -0.500163 -0.467239
vn 1.22325 -0.500163 -0.467239
vn 1.22325 0.500164 -0.467239
vn 1.22325 0.500164 -0.467239
vn 1.22325 0.500164 -0.467239
vn -0.17847 1.30944 -0.467239
vn -0.17847 1.30944 -0.467239
vn -0.17847 1.30944 -0.467239
vn -3.06355e-08 -6.94797e-08 1.40172
vn -3.06355e-08 -6.94797e-08 1.40172
vn -3.06355e-08 -6.94797e-08 1.40172
vn -0.467239 0.809281 1.04478
vn -0.467239 0.809281 1.04478
vn -0.467239 0.809281 1.04478
vn 0.934478 -2.10547e-07 1.04478
vn 0.934478 -2.10547e-07 1.04478
vn 0.934478 -2.10547e-07 1.04478
vn -0.467239 -0.809281 1.04478
vn -0.467239 -0.809281 1.04478
vn -0.467239 -0.809281 1.04478
vn -1.22325 0.500164 0.467239
vn -1.22325 0.500164 0.467239
vn -1.22325 0.500164 0.467239
vn 0.17847 1.30944 0.467239
vn 0.17847 1.30944 0.467239
vn 0.17847 1.30944 0.467239
vn 1.04478 0.809281 0.467239
vn 1.04478 0.809281 0.467239
vn 1.04478 0.809281 0.467239
vn 1.04478 -0.809282 0.467239
vn 1.04478 -0.809282 0.467239
vn 1.04478 -0.809282 0.467239
vn 0.178469 -1.30944 0.467239
vn 0.178469 -1.30944 0.467239
vn 0.178469 -1.30944 0.467239
vn -1.22325 -0.500163 0.467239
vn -1.22325 -0.500163 0.467239
vn -1.22325 -0.500163 0.467239
f 1/1/1 2/2/2 3/3/3 
f 4/4/4 5/5/5 6/6/6 
f 7/7/7 8/8/8 9/9/9 
f 10/10/10 11/11/11 12/12/12 
f 13/13/13 14/14/14 15/15/15 
f 16/16/16 17/17/17 18/18/18 
f 19/19/19 20/20/20 21/21/21 
f 22/22/22 23/23/23 24/24/24 
f 25/25/25 26/26/26 27/27/27 
f 28/28/28 29/29/29 30/30/30 
f 31/31/31 32/32/32 33/33/33 
f 34/34/34 35/35/35 36/36/36 
f 37/37/37 38/38/38 39/39/39 
f 40/40/40 41/41/41 42/42/42 
f 43/43/43 44/44/44 45/45/45 
f 46/46/46 47/47/47 48/48/48 
f 49/49/49 50/50/50 51/51/51 
f 52/52/52 53/53/53 54/54/54 
f 55/55/55 56/56/56 57/57/57 
f 58/58/58 59/59/59 60/60/60 
